<svg width="100" height="100" viewBox="0 0 100 100" fill="none" xmlns="http://www.w3.org/2000/svg">
  <path d="M50 10C27.91 10 10 27.91 10 50C10 72.09 27.91 90 50 90C72.09 90 90 72.09 90 50C90 27.91 72.09 10 50 10ZM50 85C30.67 85 15 69.33 15 50C15 30.67 30.67 15 50 15C69.33 15 85 30.67 85 50C85 69.33 69.33 85 50 85Z" fill="#4040FF"/>
  <path d="M65 35C65 42.5 55 45 50 45C45 45 35 42.5 35 35C35 27.5 42.5 25 50 25C57.5 25 65 27.5 65 35Z" fill="#4040FF"/>
  <path d="M35 65C35 57.5 45 55 50 55C55 55 65 57.5 65 65C65 72.5 57.5 75 50 75C42.5 75 35 72.5 35 65Z" fill="#4040FF"/>
  <path d="M35 35C42.5 35 45 45 45 50C45 55 42.5 65 35 65C27.5 65 25 57.5 25 50C25 42.5 27.5 35 35 35Z" fill="#4040FF"/>
  <path d="M65 65C57.5 65 55 55 55 50C55 45 57.5 35 65 35C72.5 35 75 42.5 75 50C75 57.5 72.5 65 65 65Z" fill="#4040FF"/>
</svg>